<svg width="19" height="18" viewBox="0 0 19 18" fill="none" xmlns="http://www.w3.org/2000/svg">
<path d="M14.3164 3C14.7306 3 15.0664 3.33579 15.0664 3.75V5.25C15.0664 5.66421 14.7306 6 14.3164 6C13.9022 6 13.5664 5.66421 13.5664 5.25V3.75C13.5664 3.33579 13.9022 3 14.3164 3Z" fill="white"/>
<path d="M9.81641 12.75C9.81641 12.3358 9.48062 12 9.06641 12C8.65219 12 8.31641 12.3358 8.31641 12.75V14.25C8.31641 14.6642 8.65219 15 9.06641 15C9.48062 15 9.81641 14.6642 9.81641 14.25L9.81641 12.75Z" fill="white"/>
<path d="M9.06641 3C9.48062 3 9.81641 3.33579 9.81641 3.75V9.75C9.81641 10.1642 9.48062 10.5 9.06641 10.5C8.65219 10.5 8.31641 10.1642 8.31641 9.75V3.75C8.31641 3.33579 8.65219 3 9.06641 3Z" fill="white"/>
<path d="M4.56641 3.75C4.56641 3.33579 4.23062 3 3.81641 3C3.40219 3 3.06641 3.33579 3.06641 3.75L3.06641 6.75C3.06641 7.16421 3.40219 7.5 3.81641 7.5C4.23062 7.5 4.56641 7.16421 4.56641 6.75L4.56641 3.75Z" fill="white"/>
<path d="M4.56641 9.75C4.56641 9.33579 4.23062 9 3.81641 9C3.40219 9 3.06641 9.33579 3.06641 9.75L3.06641 14.25C3.06641 14.6642 3.40219 15 3.81641 15C4.23062 15 4.56641 14.6642 4.56641 14.25L4.56641 9.75Z" fill="white"/>
<path d="M15.0664 8.25C15.0664 7.83579 14.7306 7.5 14.3164 7.5C13.9022 7.5 13.5664 7.83579 13.5664 8.25L13.5664 14.25C13.5664 14.6642 13.9022 15 14.3164 15C14.7306 15 15.0664 14.6642 15.0664 14.25V8.25Z" fill="white"/>
<path fill-rule="evenodd" clip-rule="evenodd" d="M14.3164 9C13.0738 9 12.0664 7.99264 12.0664 6.75C12.0664 5.50736 13.0738 4.5 14.3164 4.5C15.559 4.5 16.5664 5.50736 16.5664 6.75C16.5664 7.99264 15.559 9 14.3164 9ZM14.3164 7.5C13.9022 7.5 13.5664 7.16421 13.5664 6.75C13.5664 6.33579 13.9022 6 14.3164 6C14.7306 6 15.0664 6.33579 15.0664 6.75C15.0664 7.16421 14.7306 7.5 14.3164 7.5Z" fill="white"/>
<path fill-rule="evenodd" clip-rule="evenodd" d="M6.81641 11.25C6.81641 12.4926 7.82377 13.5 9.06641 13.5C10.309 13.5 11.3164 12.4926 11.3164 11.25C11.3164 10.0074 10.309 9 9.06641 9C7.82377 9 6.81641 10.0074 6.81641 11.25ZM8.31641 11.25C8.31641 11.6642 8.65219 12 9.06641 12C9.48062 12 9.81641 11.6642 9.81641 11.25C9.81641 10.8358 9.48062 10.5 9.06641 10.5C8.65219 10.5 8.31641 10.8358 8.31641 11.25Z" fill="white"/>
<path fill-rule="evenodd" clip-rule="evenodd" d="M1.56641 8.25C1.56641 9.49264 2.57377 10.5 3.81641 10.5C5.05905 10.5 6.06641 9.49264 6.06641 8.25C6.06641 7.00736 5.05905 6 3.81641 6C2.57377 6 1.56641 7.00736 1.56641 8.25ZM3.06641 8.25C3.06641 8.66421 3.40219 9 3.81641 9C4.23062 9 4.56641 8.66421 4.56641 8.25C4.56641 7.83579 4.23062 7.5 3.81641 7.5C3.40219 7.5 3.06641 7.83579 3.06641 8.25Z" fill="white"/>
</svg>
