<svg width="20" height="21" viewBox="0 0 20 21" fill="none" xmlns="http://www.w3.org/2000/svg">
<g id="Arrow Big Left">
<path id="Shape" fill-rule="evenodd" clip-rule="evenodd" d="M1.66663 10.7383C1.66663 11.1985 2.03972 11.5716 2.49996 11.5716L17.5 11.5716C17.9602 11.5716 18.3333 11.1985 18.3333 10.7383C18.3333 10.2781 17.9602 9.90497 17.5 9.90497L2.49996 9.90497C2.03972 9.90497 1.66663 10.2781 1.66663 10.7383Z" fill="#707070"/>
<path id="Shape_2" fill-rule="evenodd" clip-rule="evenodd" d="M1.9107 10.149C1.58527 10.4744 1.58527 11.0021 1.9107 11.3275L7.74404 17.1608C8.06947 17.4863 8.59711 17.4863 8.92255 17.1609C9.24798 16.8354 9.24798 16.3078 8.92255 15.9823L3.67847 10.7383L8.92255 5.49418C9.24798 5.16875 9.24798 4.64111 8.92255 4.31567C8.59711 3.99024 8.06947 3.99023 7.74404 4.31567L1.9107 10.149Z" fill="#707070"/>
</g>
</svg>
