<svg width="19" height="18" viewBox="0 0 19 18" fill="none" xmlns="http://www.w3.org/2000/svg">
<path d="M15.7373 8.734C15.1894 8.09422 14.9405 7.53979 14.9405 6.59787V6.2776C14.9405 5.05015 14.658 4.2593 14.0437 3.46845C13.0971 2.24024 11.5034 1.5 9.94333 1.5H9.87699C8.34967 1.5 6.80595 2.20625 5.8429 3.3846C5.19515 4.19132 4.87985 5.01616 4.87985 6.2776V6.59787C4.87985 7.53979 4.64729 8.09422 4.08302 8.734C3.66784 9.20534 3.53516 9.81113 3.53516 10.4668C3.53516 11.1232 3.75058 11.7448 4.18291 12.2502C4.74717 12.856 5.544 13.2427 6.35797 13.3099C7.53644 13.4444 8.71491 13.495 9.91053 13.495C11.1054 13.495 12.2839 13.4104 13.4631 13.3099C14.2763 13.2427 15.0731 12.856 15.6374 12.2502C16.069 11.7448 16.2852 11.1232 16.2852 10.4668C16.2852 9.81113 16.1525 9.20534 15.7373 8.734Z" fill="white"/>
<path opacity="0.4" d="M11.4165 14.4214C11.0415 14.3413 8.75691 14.3413 8.38197 14.4214C8.06145 14.4954 7.71484 14.6676 7.71484 15.0453C7.73348 15.4056 7.94443 15.7236 8.23662 15.9253L8.23588 15.926C8.61379 16.2206 9.0573 16.408 9.52168 16.4752C9.76916 16.5092 10.0211 16.5077 10.2775 16.4752C10.7412 16.408 11.1847 16.2206 11.5626 15.926L11.5618 15.9253C11.854 15.7236 12.065 15.4056 12.0836 15.0453C12.0836 14.6676 11.737 14.4954 11.4165 14.4214Z" fill="white"/>
</svg>
