<svg width="20" height="20" viewBox="0 0 20 20" fill="none" xmlns="http://www.w3.org/2000/svg">
<path fill-rule="evenodd" clip-rule="evenodd" d="M13.0967 14.1448H7.08008C6.73508 14.1448 6.45508 13.8648 6.45508 13.5198C6.45508 13.1748 6.73508 12.8948 7.08008 12.8948H13.0967C13.4417 12.8948 13.7217 13.1748 13.7217 13.5198C13.7217 13.8648 13.4417 14.1448 13.0967 14.1448Z" fill="#7E7E7E"/>
<path fill-rule="evenodd" clip-rule="evenodd" d="M13.0967 10.656H7.08008C6.73508 10.656 6.45508 10.376 6.45508 10.031C6.45508 9.68601 6.73508 9.40601 7.08008 9.40601H13.0967C13.4417 9.40601 13.7217 9.68601 13.7217 10.031C13.7217 10.376 13.4417 10.656 13.0967 10.656Z" fill="#7E7E7E"/>
<path fill-rule="evenodd" clip-rule="evenodd" d="M9.37494 7.17529H7.0791C6.7341 7.17529 6.4541 6.89529 6.4541 6.55029C6.4541 6.20529 6.7341 5.92529 7.0791 5.92529H9.37494C9.71994 5.92529 9.99994 6.20529 9.99994 6.55029C9.99994 6.89529 9.71994 7.17529 9.37494 7.17529Z" fill="#7E7E7E"/>
<mask id="mask0_0_3357" style="mask-type:luminance" maskUnits="userSpaceOnUse" x="2" y="1" width="16" height="18">
<path fill-rule="evenodd" clip-rule="evenodd" d="M2.5 1.66675H17.6372V18.2582H2.5V1.66675Z" fill="white"/>
</mask>
<g mask="url(#mask0_0_3357)">
<path fill-rule="evenodd" clip-rule="evenodd" d="M13.2575 2.9165L6.85 2.91984C4.91 2.9315 3.75 4.1315 3.75 6.13067V13.794C3.75 15.8065 4.92083 17.0082 6.88 17.0082L13.2875 17.0057C15.2275 16.994 16.3875 15.7923 16.3875 13.794V6.13067C16.3875 4.11817 15.2175 2.9165 13.2575 2.9165ZM6.88083 18.2582C4.26083 18.2582 2.5 16.464 2.5 13.794V6.13067C2.5 3.4365 4.20583 1.68567 6.84583 1.66984L13.2567 1.6665H13.2575C15.8775 1.6665 17.6375 3.46067 17.6375 6.13067V13.794C17.6375 16.4873 15.9317 18.239 13.2917 18.2557L6.88083 18.2582Z" fill="#7E7E7E"/>
</g>
</svg>
