<svg width="16" height="20" viewBox="0 0 16 20" fill="none" xmlns="http://www.w3.org/2000/svg">
<path fill-rule="evenodd" clip-rule="evenodd" d="M5.18209 14.0243H10.1194C10.4915 14.0243 10.8001 13.7127 10.8001 13.3368C10.8001 12.961 10.4915 12.6585 10.1194 12.6585H5.18209C4.80998 12.6585 4.5014 12.961 4.5014 13.3368C4.5014 13.7127 4.80998 14.0243 5.18209 14.0243ZM8.24975 8.07516H5.18209C4.80998 8.07516 4.5014 8.38683 4.5014 8.76266C4.5014 9.1385 4.80998 9.441 5.18209 9.441H8.24975C8.62186 9.441 8.93044 9.1385 8.93044 8.76266C8.93044 8.38683 8.62186 8.07516 8.24975 8.07516ZM14.7267 7.27364C14.9401 7.27118 15.1724 7.2685 15.3834 7.2685C15.6103 7.2685 15.7918 7.45183 15.7918 7.681V15.051C15.7918 17.3243 13.9676 19.1668 11.7167 19.1668H4.49232C2.13259 19.1668 0.208496 17.2327 0.208496 14.8493V4.96766C0.208496 2.69433 2.04183 0.833496 4.30173 0.833496H9.14826C9.38424 0.833496 9.56576 1.026 9.56576 1.25516V4.20683C9.56576 5.88433 10.9362 7.25933 12.5971 7.2685C12.9851 7.2685 13.3271 7.2714 13.6264 7.27393C13.8592 7.27591 14.0662 7.27766 14.2489 7.27766C14.3781 7.27766 14.5456 7.27573 14.7267 7.27364ZM14.977 5.93566C14.231 5.93841 13.3515 5.93566 12.7189 5.92925C11.7151 5.92925 10.8883 5.09416 10.8883 4.08033V1.664C10.8883 1.26891 11.363 1.07275 11.6343 1.35783C12.1255 1.87369 12.8006 2.58279 13.4725 3.28864C14.1427 3.9926 14.8097 4.69334 15.2883 5.19591C15.5533 5.47366 15.3591 5.93475 14.977 5.93566Z" fill="#0145FE"/>
</svg>
