<svg width="21" height="20" viewBox="0 0 21 20" fill="none" xmlns="http://www.w3.org/2000/svg">
<path fill-rule="evenodd" clip-rule="evenodd" d="M1.71582 10.0003C1.71582 5.39795 5.44678 1.66699 10.0492 1.66699C14.6515 1.66699 18.3825 5.39795 18.3825 10.0003C18.3825 14.6027 14.6515 18.3337 10.0492 18.3337C5.44678 18.3337 1.71582 14.6027 1.71582 10.0003ZM8.13841 6.91107C7.81297 6.58563 7.28534 6.58563 6.9599 6.91107C6.63446 7.23651 6.63446 7.76414 6.9599 8.08958L8.87064 10.0003L6.9599 11.9111C6.63446 12.2365 6.63446 12.7641 6.9599 13.0896C7.28534 13.415 7.81297 13.415 8.13841 13.0896L10.0492 11.1788L11.9599 13.0896C12.2853 13.415 12.813 13.415 13.1384 13.0896C13.4638 12.7641 13.4638 12.2365 13.1384 11.9111L11.2277 10.0003L13.1384 8.08958C13.4638 7.76414 13.4638 7.23651 13.1384 6.91107C12.813 6.58563 12.2853 6.58563 11.9599 6.91107L10.0492 8.82182L8.13841 6.91107Z" fill="#E71430"/>
</svg>
