<svg width="20" height="20" viewBox="0 0 20 20" fill="none" xmlns="http://www.w3.org/2000/svg">
<mask id="mask0_0_3370" style="mask-type:luminance" maskUnits="userSpaceOnUse" x="3" y="1" width="15" height="18">
<path fill-rule="evenodd" clip-rule="evenodd" d="M3.33301 1.66699H17.472V18.63H3.33301V1.66699Z" fill="white"/>
</mask>
<g mask="url(#mask0_0_3370)">
<path fill-rule="evenodd" clip-rule="evenodd" d="M10.4025 2.91675C9.69585 2.91675 5.23752 4.48675 4.72335 4.91591C4.57169 5.06841 4.56585 5.33341 4.59835 7.10758C4.61335 7.96258 4.63419 9.12425 4.63419 10.7326C4.63419 15.0667 9.40252 16.9909 10.4017 17.3451C11.4 16.9892 16.1709 15.0542 16.1709 10.7326C16.1709 9.12258 16.1917 7.96008 16.2075 7.10508C16.2392 5.33258 16.2334 5.06758 16.0725 4.90758C15.5684 4.48675 11.1092 2.91675 10.4025 2.91675ZM10.4025 18.6301C10.3417 18.6301 10.2809 18.6217 10.2217 18.6034C9.94252 18.5192 3.38419 16.4676 3.38419 10.7326C3.38419 9.13508 3.36335 7.97925 3.34835 7.13092C3.31002 5.01175 3.30169 4.57008 3.84919 4.02341C4.50335 3.36758 9.45752 1.66675 10.4025 1.66675C11.3467 1.66675 16.3009 3.36758 16.9567 4.02341C17.5034 4.57008 17.495 5.01175 17.4567 7.12842C17.4417 7.97675 17.4209 9.13258 17.4209 10.7326C17.4209 16.4676 10.8625 18.5192 10.5834 18.6034C10.5242 18.6217 10.4634 18.6301 10.4025 18.6301Z" fill="#7E7E7E"/>
</g>
<path fill-rule="evenodd" clip-rule="evenodd" d="M9.81387 12.0996C9.64803 12.0996 9.48887 12.0338 9.37137 11.9163L7.7947 10.338C7.55137 10.0938 7.55137 9.69715 7.79553 9.45381C8.03887 9.20965 8.43553 9.20965 8.6797 9.45381L9.81387 10.5896L12.6205 7.78298C12.8647 7.53881 13.2597 7.53881 13.5039 7.78298C13.748 8.02715 13.748 8.42298 13.5039 8.66715L10.2555 11.9163C10.1389 12.0338 9.9797 12.0996 9.81387 12.0996Z" fill="#7E7E7E"/>
</svg>
