<svg width="25" height="24" viewBox="0 0 25 24" fill="none" xmlns="http://www.w3.org/2000/svg">
<path d="M0.5 12C0.5 5.37258 5.87258 0 12.5 0C19.1274 0 24.5 5.37258 24.5 12C24.5 18.6274 19.1274 24 12.5 24C5.87258 24 0.5 18.6274 0.5 12Z" fill="#323238"/>
<path d="M12.0877 6.33687C12.3155 6.10906 12.6848 6.10906 12.9126 6.33687L15.246 8.6702C15.4738 8.89801 15.4738 9.26735 15.246 9.49516C15.0182 9.72297 14.6488 9.72297 14.421 9.49516L13.0835 8.15764V13.7493C13.0835 14.0715 12.8223 14.3327 12.5002 14.3327C12.178 14.3327 11.9168 14.0715 11.9168 13.7493V8.15764L10.5793 9.49516C10.3515 9.72297 9.98216 9.72297 9.75435 9.49516C9.52655 9.26735 9.52655 8.89801 9.75435 8.6702L12.0877 6.33687Z" fill="white"/>
<path d="M7.24984 11.416C7.57201 11.416 7.83317 11.6772 7.83317 11.9993V14.4493C7.83317 14.949 7.83363 15.2887 7.85507 15.5513C7.87597 15.807 7.91385 15.9378 7.96033 16.029C8.07218 16.2485 8.25066 16.427 8.47018 16.5388C8.56142 16.5853 8.6922 16.6232 8.94794 16.6441C9.2105 16.6655 9.55017 16.666 10.0498 16.666H14.9498C15.4495 16.666 15.7892 16.6655 16.0518 16.6441C16.3075 16.6232 16.4383 16.5853 16.5295 16.5388C16.749 16.427 16.9275 16.2485 17.0393 16.029C17.0858 15.9378 17.1237 15.807 17.1446 15.5513C17.166 15.2887 17.1665 14.949 17.1665 14.4493V11.9993C17.1665 11.6772 17.4277 11.416 17.7498 11.416C18.072 11.416 18.3332 11.6772 18.3332 11.9993V14.4734C18.3332 14.943 18.3332 15.3305 18.3074 15.6462C18.2806 15.9741 18.2231 16.2755 18.0788 16.5587C17.8551 16.9977 17.4982 17.3546 17.0592 17.5783C16.776 17.7226 16.4746 17.7801 16.1467 17.8069C15.831 17.8327 15.4435 17.8327 14.9739 17.8327H10.0258C9.55619 17.8327 9.16864 17.8327 8.85294 17.8069C8.52505 17.7801 8.22364 17.7226 7.94053 17.5783C7.50148 17.3546 7.14453 16.9977 6.92083 16.5587C6.77657 16.2755 6.71907 15.9741 6.69228 15.6462C6.66649 15.3305 6.6665 14.943 6.6665 14.4734V11.9993C6.6665 11.6772 6.92767 11.416 7.24984 11.416Z" fill="white"/>
</svg>
