<svg width="41" height="40" viewBox="0 0 41 40" fill="none" xmlns="http://www.w3.org/2000/svg">
<path fill-rule="evenodd" clip-rule="evenodd" d="M22.1648 3.25313C22.1667 3.29288 22.1667 3.3148 22.1667 3.35865V10.7192C22.1667 11.1398 22.1665 11.5495 22.195 11.8964C22.226 12.2774 22.2995 12.727 22.53 13.1793C22.8495 13.8066 23.3595 14.3165 23.9867 14.636C24.439 14.8665 24.8887 14.94 25.2697 14.9711C25.6165 14.9995 26.0262 14.9994 26.4468 14.9994H33.8075C33.8512 14.9994 33.873 14.9994 33.9128 15.0013C34.7358 15.0405 35.4593 15.7643 35.4982 16.5874C35.5 16.6271 35.5 16.64 35.5 16.6659V28.7349C35.5 30.0765 35.5 31.1837 35.4263 32.0857C35.3498 33.0225 35.1855 33.8837 34.7733 34.6927C34.1342 35.947 33.1143 36.9669 31.86 37.606C31.051 38.0182 30.1898 38.1825 29.253 38.259C28.351 38.3327 27.2438 38.3327 25.9022 38.3327H15.0978C13.7562 38.3327 12.649 38.3327 11.747 38.259C10.8101 38.1825 9.94897 38.0182 9.14007 37.606C7.88565 36.9669 6.86578 35.947 6.22663 34.6927C5.81447 33.8837 5.6502 33.0225 5.57367 32.0857C5.49997 31.1837 5.49998 30.0765 5.5 28.7349V11.2638C5.49998 9.92223 5.49997 8.81497 5.57367 7.91298C5.6502 6.97615 5.81447 6.11498 6.22663 5.30608C6.86578 4.05167 7.88565 3.0318 9.14007 2.39265C9.94897 1.9805 10.8101 1.81622 11.747 1.73968C12.6489 1.66598 13.7562 1.666 15.0978 1.66602H20.5C20.526 1.66601 20.539 1.666 20.5788 1.66788C21.4017 1.70682 22.1255 2.43018 22.1648 3.25313Z" fill="#DCDFEC"/>
<path d="M32.9477 11.5446C32.7473 11.6675 32.5027 11.6675 32.0133 11.6675L26.8333 11.6674C26.3667 11.6674 26.1333 11.6674 25.955 11.5766C25.7982 11.4967 25.6707 11.3692 25.5908 11.2124C25.5 11.0341 25.5 10.8008 25.5 10.3341V5.15422C25.5 4.66485 25.5 4.42017 25.6228 4.21972C25.7965 3.93665 26.2053 3.76742 26.5282 3.84502C26.7567 3.89997 26.9162 4.05954 27.235 4.37869L32.7888 9.93256C33.108 10.2514 33.2675 10.4108 33.3225 10.6394C33.4 10.9622 33.2308 11.3711 32.9477 11.5446Z" fill="#A3ADBA"/>
</svg>
